<svg xmlns="http://www.w3.org/2000/svg" viewBox="0 0 945 250"><title>banner FTML</title><rect x="0.5" y="0.5" width="944" height="249" rx="15.5" ry="15.5" style="fill:#f7f8fa"/><path d="M929,1a15,15,0,0,1,15,15V234a15,15,0,0,1-15,15H16A15,15,0,0,1,1,234V16A15,15,0,0,1,16,1H929m0-1H16A16,16,0,0,0,0,16V234a16,16,0,0,0,16,16H929a16,16,0,0,0,16-16V16A16,16,0,0,0,929,0Z" style="fill:#ebeef2"/><path d="M656.59,125.27l9.23,17.48a2.72,2.72,0,0,1,0,1.33,1.36,1.36,0,0,1-1.46,1h-7.72a3.15,3.15,0,0,1-1.7-.38,2.18,2.18,0,0,1-.85-1.39L646,128.69h-.13l-4.27,14.38c-.41,1.37-1.19,2.05-2.31,2.05h-6.51c-1.2,0-1.6-.66-1.22-2L645.1,99.33a3.92,3.92,0,0,1,.81-1.6,2.41,2.41,0,0,1,1.47-.71l7.42-3.44q2-.33,1.41,1.53l-8.86,28.47h.13l13.08-13.2a3.31,3.31,0,0,1,1.14-1,3.9,3.9,0,0,1,1.4-.2h7.69c.77,0,1.05.31.87.94a3.4,3.4,0,0,1-.77,1.18Z" style="fill:#00a4e0"/><path d="M514.6,143l11.7-39.49H513.45c-1.26,0-1.67-.74-1.24-2.22l1.32-5.44A2.31,2.31,0,0,1,515.9,94H549c1.26,0,1.63.62,1.12,1.84l-1.53,5.83a2.72,2.72,0,0,1-1.1,1.44,3.78,3.78,0,0,1-1.84.4h-8.77L525.2,143.07a2.43,2.43,0,0,1-2.41,2.05h-7c-.66,0-1.08-.17-1.27-.5A2.16,2.16,0,0,1,514.6,143Z" style="fill:#00a4e0"/><path d="M561.87,118.22a10.83,10.83,0,0,0-7,2.81l-6.53,22a2.46,2.46,0,0,1-2.47,2.05h-6.32c-1.24,0-1.66-.68-1.25-2.05l9.38-31.71a3,3,0,0,1,1-1.67,2.58,2.58,0,0,1,1.57-.45h5.44a2.14,2.14,0,0,1,1.35.32c.25.22.32.6.17,1.16l-.52,2.19a21.55,21.55,0,0,1,4.89-3.59,11,11,0,0,1,4.95-1.13,3.19,3.19,0,0,1,2,.42c.3.28.3.79,0,1.54l-3.08,7c-.37.77-.84,1.18-1.43,1.18a6.4,6.4,0,0,1-.87-.08A6.75,6.75,0,0,0,561.87,118.22Z" style="fill:#00a4e0"/><path d="M596.7,139.15l-1.27,4.28a2.28,2.28,0,0,1-.83,1.25,2.11,2.11,0,0,1-1.31.44h-3.53a7.23,7.23,0,0,1-4-.84,3.52,3.52,0,0,1-1.43-2.53h-.13a17,17,0,0,1-5.07,3,14.81,14.81,0,0,1-5.6,1.31,10.75,10.75,0,0,1-5.83-1.45,7.78,7.78,0,0,1-3.27-4,15.55,15.55,0,0,1-.84-5.77,27.53,27.53,0,0,1,1.2-7,34.8,34.8,0,0,1,3.79-8.55,25.83,25.83,0,0,1,5.21-6.2,23.33,23.33,0,0,1,5.79-3.66,14.78,14.78,0,0,1,5.79-1.27,8,8,0,0,1,4.51,1.19,5.92,5.92,0,0,1,2.45,3l.67-1.62a2.1,2.1,0,0,1,2-1.48h6c1.07,0,1.43.59,1.08,1.76l-7.52,25.39c-.25.83,0,1.25.63,1.25h.56a1.17,1.17,0,0,1,1,.32A1.44,1.44,0,0,1,596.7,139.15Zm-11.54-5.07,4.21-14.21a6.37,6.37,0,0,0-2-1.76,5.15,5.15,0,0,0-2.68-.77,7.58,7.58,0,0,0-5.25,2.49,16.44,16.44,0,0,0-4,7.3,21.26,21.26,0,0,0-.77,3.52,12.94,12.94,0,0,0-.06,3.17,3.65,3.65,0,0,0,1.17,2.45,4.14,4.14,0,0,0,2.85.89,7.53,7.53,0,0,0,3.54-1,14,14,0,0,0,3-2Z" style="fill:#00a4e0"/><path d="M626.59,136.74l-.19,4.93a3,3,0,0,1-.42,1.54,3,3,0,0,1-1.13.77A27.14,27.14,0,0,1,614,146.14q-7.53,0-10.64-4.73t-.48-13.61a29.34,29.34,0,0,1,8.85-14.3,21.17,21.17,0,0,1,14.08-5.22,17.9,17.9,0,0,1,8.73,2,.87.87,0,0,1,.55.84,3,3,0,0,1-.43,1.31l-2.65,5.29a1.72,1.72,0,0,1-1,1,1.4,1.4,0,0,1-1.07-.2,12,12,0,0,0-5.5-1.4,9.55,9.55,0,0,0-6.74,2.66,16.34,16.34,0,0,0-4.28,7.49q-1.54,5.28-.19,7.77c.91,1.65,2.76,2.48,5.52,2.48a19.08,19.08,0,0,0,6.29-1.34,1.69,1.69,0,0,1,1.08-.18C626.51,136,626.63,136.24,626.59,136.74Z" style="fill:#00a4e0"/><path d="M703.92,129.14h-.15l-1.59-7.55H690.83l4.44,21.83a1.94,1.94,0,0,0,.77,1.37,3.44,3.44,0,0,0,1.73.33h2.76a3.76,3.76,0,0,0,1.59-.31,3.57,3.57,0,0,0,1.37-1.33l15.39-21.9h-9.5Z" style="fill:#00131a"/><path d="M696.68,95.53A2.63,2.63,0,0,0,696,94a2.58,2.58,0,0,0-1.74-.45h-5.39a3,3,0,0,0-1.84.54,3.45,3.45,0,0,0-1.1,1.81l-6.82,21.17h22.15Z" style="fill:#00a4e0"/><path d="M738.38,94a1.79,1.79,0,0,0-1.42-.42h-5.17a4.35,4.35,0,0,0-3.6,2l-15.52,21.54h21l4.9-21.68A1.73,1.73,0,0,0,738.38,94Z" style="fill:#00a4e0"/><path d="M670.84,142.72a2,2,0,0,0,0,1.84,2.3,2.3,0,0,0,1.83.57h6.1a4.11,4.11,0,0,0,2-.41,3.07,3.07,0,0,0,1.1-1.87l6.44-21.25H677.63Z" style="fill:#00131a"/><path d="M716.08,142.07a4,4,0,0,0-.06,2.31c.2.47.76.71,1.69.71h7.45a2.54,2.54,0,0,0,2.63-2.31l4.77-21.19H721.11Z" style="fill:#00131a"/><path d="M743.93,121.59,738,142.72a2.39,2.39,0,0,0,0,1.91,2.23,2.23,0,0,0,1.7.49H768a2.68,2.68,0,0,0,2.84-2.14l1.54-5.67c.4-1.43-.13-2.13-1.58-2.13H752l3.77-13.59Z" style="fill:#00131a"/><path d="M763,95.74q.34-1.27,0-1.74c-.23-.32-.77-.47-1.59-.47h-7.52a2.55,2.55,0,0,0-2.68,2.07l-6,21.46H757Z" style="fill:#00a4e0"/><path d="M449.37,138.67,448.1,143a2.23,2.23,0,0,1-.83,1.25,2.1,2.1,0,0,1-1.3.44h-3.53a7.15,7.15,0,0,1-4-.85,3.46,3.46,0,0,1-1.42-2.53h-.13a17.16,17.16,0,0,1-5.08,3,15,15,0,0,1-5.6,1.31,10.73,10.73,0,0,1-5.83-1.46,7.61,7.61,0,0,1-3.26-4,15.38,15.38,0,0,1-.85-5.78,27.6,27.6,0,0,1,1.2-7,35,35,0,0,1,3.79-8.55,26.23,26.23,0,0,1,5.21-6.2,23.58,23.58,0,0,1,5.79-3.65,14.83,14.83,0,0,1,5.79-1.28,8.12,8.12,0,0,1,4.51,1.19,5.82,5.82,0,0,1,2.44,3l.67-1.62a2.1,2.1,0,0,1,2-1.48h6c1.07,0,1.43.58,1.07,1.76l-7.52,25.39c-.25.84,0,1.25.65,1.25h.55a1.17,1.17,0,0,1,1,.33C449.54,137.73,449.54,138.11,449.37,138.67Zm-11.54-5.07L442,119.39a6.45,6.45,0,0,0-2-1.76,5.16,5.16,0,0,0-2.7-.77,7.64,7.64,0,0,0-5.25,2.48,16.41,16.41,0,0,0-4,7.3,23.61,23.61,0,0,0-.76,3.53,13.44,13.44,0,0,0-.07,3.17,3.68,3.68,0,0,0,1.18,2.44,4.17,4.17,0,0,0,2.84.9,7.65,7.65,0,0,0,3.55-1,14.62,14.62,0,0,0,3.06-2.05Z" style="fill:#00131a"/><path d="M335.46,123.46h49.17l-5.79,18.92q-.4,1.31,0,1.8a2.39,2.39,0,0,0,1.75.47h7.23a2.6,2.6,0,0,0,2.68-2.06l5.85-19.09H406a2.68,2.68,0,0,0,2.77-2.13l.7-2.31H336.75Z" style="fill:#00131a"/><path d="M430.12,94c-.19-.3-.64-.45-1.34-.45H385.07a.67.67,0,0,0-.23,1.3l7.49,3.45-4.25,14.53h-28.2l-1.23,3.63h58.78l.14-.48c.4-1.32.45-3.07-2-3.07H399.78l2.84-9.88H424.2a5.33,5.33,0,0,0,2.2-.36,2.61,2.61,0,0,0,1.2-1.47l2.51-6A1.31,1.31,0,0,0,430.12,94Z" style="fill:#00a4e0"/><path d="M479.26,133.74a16.51,16.51,0,0,1-2.7,5.38,14.18,14.18,0,0,1-4.11,3.72,19.58,19.58,0,0,1-4.88,2,20.06,20.06,0,0,1-10.68-.09,22.17,22.17,0,0,1-5-2c-.77-.38-.77-1.13-.16-2.23l2.76-4.78c.64-1.18,1.43-1.51,2.4-1a17.73,17.73,0,0,0,8.1,2.26,5.54,5.54,0,0,0,2.9-.68,3.27,3.27,0,0,0,1.54-1.9,1.91,1.91,0,0,0-.15-1.71,5.4,5.4,0,0,0-2.08-1.45l-4.4-2.06a8.41,8.41,0,0,1-4.34-4.13,9.29,9.29,0,0,1-.08-6.55,13.53,13.53,0,0,1,1.92-3.95,14.09,14.09,0,0,1,2.94-3.08,20,20,0,0,1,3.59-2.14,18.06,18.06,0,0,1,7.59-1.73,19.12,19.12,0,0,1,9.71,2.35c.67.38.73,1.08.16,2.08l-2.88,5a1.48,1.48,0,0,1-1.91.85l-.18-.08q-1.62-.74-2.46-1.05a17.17,17.17,0,0,0-2.12-.62,11.9,11.9,0,0,0-2.6-.28,4.54,4.54,0,0,0-2.61.7,3.06,3.06,0,0,0-1.33,1.67,2.12,2.12,0,0,0,0,1.49,3.32,3.32,0,0,0,1.67,1.31l5,2.48Q481.31,126.84,479.26,133.74Z" style="fill:#00131a"/><path d="M506.6,101.52l-3.07,9.16h7.23c1.09,0,1.48.51,1.17,1.54l-1.25,4.24a2.37,2.37,0,0,1-.83,1.27,2.17,2.17,0,0,1-1.32.45h-7.24l-3.91,12.46a12.3,12.3,0,0,0-.77,4.69c.14,1,.89,1.48,2.27,1.48a17.23,17.23,0,0,0,4.55-.89c1.2-.38,1.75-.11,1.63.82l-1.68,5a3.41,3.41,0,0,1-.77,1.39,3.53,3.53,0,0,1-1.35,1,16.18,16.18,0,0,1-7.6,1.48q-6,0-7.58-3.35a7.48,7.48,0,0,1-.6-4.35,53.61,53.61,0,0,1,1.81-7.48l3.85-12.24H487.6c-.77,0-1.25-.15-1.39-.47s.09-.68.66-2l1.38-3.08a5,5,0,0,1,.88-1.53,1.51,1.51,0,0,1,1.23-.4h3.08l2.57-7.47a4.07,4.07,0,0,1,.82-1.6,2.41,2.41,0,0,1,1.47-.71l6.86-.93C506.5,99.76,507,100.28,506.6,101.52Z" style="fill:#00131a"/><path d="M283.26,79.52c-.23-.33-.77-.42-1.62-.28l-35.06,5.62-4.86.77-12.87,2.06c-.89.15-1.09,1.38-.28,1.62l9,2.72-5.13,18.38-34,5.45-1.49,4.62,71-11.39.17-.6c.49-1.67.55-3.78-2.37-3.32l-19.12,3.08L250,95.77l26.07-4.18a7,7,0,0,0,2.66-.87,3.87,3.87,0,0,0,1.45-2l3-7.7A1.52,1.52,0,0,0,283.26,79.52Z" style="fill:#00a4e0"/><path d="M242.66,43.48a70.07,70.07,0,0,0-69.42,80.23l9.08-1.14a61.15,61.15,0,1,1,2.31,9.88l43-6.92-7,24c-.33,1.12-.32,1.85,0,2.17s1,.4,2.1.22l8.73-1.4a3.84,3.84,0,0,0,3.23-3l7.06-24.2,11.61-1.86a4,4,0,0,0,3.34-3.08l.84-2.89-74.39,11.93h0l-9,1.45s.24,1,.55,2.31c.08.32.16.63.25.95.18.67.36,1.34.52,1.85h0a70.17,70.17,0,1,0,67.19-90.44Z" style="fill:#00131a"/><path d="M506,201.17l7.83-14.27h1.72l1.81,14.27h-1.63l-.57-4.55h-4.93l-2.42,4.55Zm5-6h4l-.38-3.33q-.07-.72-.15-1.59c0-.58-.09-1.09-.1-1.55h-.06c-.21.5-.44,1-.71,1.56s-.54,1.09-.83,1.65Z" style="fill:#00131a"/><path d="M525.82,201.17l-1.29-10.7h1.64l.65,6.16c0,.35.08.74.11,1.17s.06.85.08,1.23,0,.68,0,.87h.06c.14-.32.31-.68.5-1.09l.58-1.21.52-1,3.3-6.1h1.74l-5.83,10.7Z" style="fill:#00131a"/><path d="M537.63,201.37a4.12,4.12,0,0,1-2.07-.49,3.22,3.22,0,0,1-1.33-1.38,4.7,4.7,0,0,1-.46-2.17,8.89,8.89,0,0,1,.37-2.55,7.93,7.93,0,0,1,1.08-2.27,5.6,5.6,0,0,1,1.7-1.63,4.21,4.21,0,0,1,2.22-.61,3.35,3.35,0,0,1,2.24.66,2.31,2.31,0,0,1,.76,1.82,3.06,3.06,0,0,1-.38,1.49,3.42,3.42,0,0,1-1.15,1.19,6.42,6.42,0,0,1-2,.78,12.67,12.67,0,0,1-2.8.28h-.37a3.63,3.63,0,0,0,0,.39c0,.14,0,.27,0,.4a3,3,0,0,0,.62,2,2.33,2.33,0,0,0,1.88.73,4.69,4.69,0,0,0,1.46-.22,11.72,11.72,0,0,0,1.44-.58v1.4a10.3,10.3,0,0,1-1.46.54A6.25,6.25,0,0,1,537.63,201.37Zm-1.93-6.21h.24a11.63,11.63,0,0,0,2.29-.22,4,4,0,0,0,1.68-.73,1.62,1.62,0,0,0,.63-1.34,1.19,1.19,0,0,0-.37-.9,1.59,1.59,0,0,0-1.13-.35,2.45,2.45,0,0,0-1.33.42,4.1,4.1,0,0,0-1.18,1.2A6.26,6.26,0,0,0,535.7,195.16Z" style="fill:#00131a"/><path d="M543.31,201.17l2.27-10.7h1.33l-.25,2.07h.1q.4-.56.87-1.08a4.14,4.14,0,0,1,1.07-.85,2.73,2.73,0,0,1,1.39-.34c.19,0,.39,0,.59,0a3.38,3.38,0,0,1,.57.11l-.35,1.46-.52-.09a4.12,4.12,0,0,0-.51,0,2.71,2.71,0,0,0-1.38.38,4.39,4.39,0,0,0-1.13,1,6.43,6.43,0,0,0-.85,1.44,8.67,8.67,0,0,0-.53,1.61l-1,4.95Z" style="fill:#00131a"/><path d="M550.08,206a4.11,4.11,0,0,1-.78-.06,5.47,5.47,0,0,1-.58-.15v-1.32c.17,0,.37.09.58.13a5.09,5.09,0,0,0,.69,0,2,2,0,0,0,1.38-.51,5.94,5.94,0,0,0,1.12-1.49l.75-1.34-1.64-10.83h1.64L554,196c.07.43.12.89.16,1.38s.07,1,.09,1.4,0,.79,0,1.07h0l.41-.94c.19-.4.38-.83.59-1.27s.39-.82.56-1.11l3.21-6h1.74L554,203a9.59,9.59,0,0,1-1.08,1.63,3.82,3.82,0,0,1-1.22,1A3.57,3.57,0,0,1,550.08,206Z" style="fill:#00131a"/><path d="M564,206a3.8,3.8,0,0,1-.7-.06,3.34,3.34,0,0,1-.57-.15V204.4l.54.16a2.72,2.72,0,0,0,.58.06A1.29,1.29,0,0,0,565,204a4.85,4.85,0,0,0,.64-1.67l2.25-10.66H566l.14-.69,2-.6.24-1a8.31,8.31,0,0,1,.54-1.68,3.44,3.44,0,0,1,.75-1.08,2.34,2.34,0,0,1,1-.58,4.32,4.32,0,0,1,1.31-.18,4.94,4.94,0,0,1,1,.11,4.69,4.69,0,0,1,.84.26l-.42,1.24-.63-.19a3.24,3.24,0,0,0-.72-.08,1.79,1.79,0,0,0-1.31.46,3.55,3.55,0,0,0-.74,1.73l-.25,1.07h2.31l-.24,1.24h-2.31l-2.29,10.85a7,7,0,0,1-.63,1.84,3,3,0,0,1-1,1.17A2.76,2.76,0,0,1,564,206Z" style="fill:#00131a"/><path d="M575.15,201.37a2.61,2.61,0,0,1-2.53-1.66,4.83,4.83,0,0,1-.37-2,10.62,10.62,0,0,1,.25-2.28,9.18,9.18,0,0,1,.71-2,7,7,0,0,1,1.11-1.64,4.77,4.77,0,0,1,1.46-1.09,3.84,3.84,0,0,1,1.75-.4,2.71,2.71,0,0,1,1.25.28,2.62,2.62,0,0,1,.89.72,3.49,3.49,0,0,1,.56.94h.1l.63-1.74h1.24l-2.27,10.7h-1.3l.29-2.07h-.07a8.74,8.74,0,0,1-1,1.11,5.42,5.42,0,0,1-1.24.84A3.38,3.38,0,0,1,575.15,201.37Zm.53-1.35a2.46,2.46,0,0,0,1.49-.55,5.62,5.62,0,0,0,1.33-1.5,7.65,7.65,0,0,0,.9-2.12,5.82,5.82,0,0,0,.21-1.06,7.28,7.28,0,0,0,.06-.9,2.39,2.39,0,0,0-.54-1.63,1.82,1.82,0,0,0-1.45-.62,2.47,2.47,0,0,0-1.23.33,3.69,3.69,0,0,0-1,.91,5.64,5.64,0,0,0-.79,1.34,8.57,8.57,0,0,0-.52,1.67,9.36,9.36,0,0,0-.18,1.85,2.75,2.75,0,0,0,.46,1.7A1.56,1.56,0,0,0,575.68,200Z" style="fill:#00131a"/><path d="M585.71,201.37a6.69,6.69,0,0,1-1.71-.2,5.69,5.69,0,0,1-1.29-.49v-1.5a7.57,7.57,0,0,0,1.32.59,5,5,0,0,0,1.63.27,3.87,3.87,0,0,0,1.38-.22,1.8,1.8,0,0,0,.83-.62,1.57,1.57,0,0,0,.28-.93,1.44,1.44,0,0,0-.18-.73,2.07,2.07,0,0,0-.59-.6,10.5,10.5,0,0,0-1.07-.67,7.55,7.55,0,0,1-1.27-.85,3.12,3.12,0,0,1-.79-.94,2.53,2.53,0,0,1-.27-1.2,2.8,2.8,0,0,1,.45-1.59,2.86,2.86,0,0,1,1.27-1,4.52,4.52,0,0,1,1.91-.38,7.11,7.11,0,0,1,1.78.22,8.57,8.57,0,0,1,1.42.51l-.53,1.3a7.39,7.39,0,0,0-1.16-.45,5,5,0,0,0-1.51-.21,2.35,2.35,0,0,0-1.47.42,1.36,1.36,0,0,0-.54,1.13,1.47,1.47,0,0,0,.16.67,1.93,1.93,0,0,0,.57.58,11.93,11.93,0,0,0,1.09.67,12.08,12.08,0,0,1,1.21.79,3.14,3.14,0,0,1,.86.93,2.38,2.38,0,0,1,.32,1.29,3,3,0,0,1-.5,1.77,3.06,3.06,0,0,1-1.42,1.1A5.74,5.74,0,0,1,585.71,201.37Z" style="fill:#00131a"/><path d="M594.83,201.37a2.94,2.94,0,0,1-1.77-.51,2.05,2.05,0,0,1-.71-1.77,5.29,5.29,0,0,1,0-.66,7,7,0,0,1,.13-.73l1.26-6h-1.65l.15-.75,1.78-.69,1.17-2.26h1l-.54,2.46h2.76l-.26,1.24h-2.74l-1.27,6a4.56,4.56,0,0,0-.12.58,3.21,3.21,0,0,0-.06.6,1.27,1.27,0,0,0,.26.81,1,1,0,0,0,.85.33,3.2,3.2,0,0,0,.7-.07,5.51,5.51,0,0,0,.72-.19V201a4.78,4.78,0,0,1-.74.23A4.44,4.44,0,0,1,594.83,201.37Z" style="fill:#00131a"/><path d="M607.86,201.37a4.12,4.12,0,0,1-2.07-.49,3.17,3.17,0,0,1-1.33-1.38,4.7,4.7,0,0,1-.47-2.17,8.9,8.9,0,0,1,.38-2.55,7.93,7.93,0,0,1,1.08-2.27,5.57,5.57,0,0,1,1.69-1.63,4.21,4.21,0,0,1,2.22-.61,3.33,3.33,0,0,1,2.24.66,2.28,2.28,0,0,1,.76,1.82,3,3,0,0,1-.38,1.49,3.33,3.33,0,0,1-1.15,1.19,6.46,6.46,0,0,1-2,.78,12.76,12.76,0,0,1-2.81.28h-.37q0,.16,0,.39c0,.14,0,.27,0,.4a3,3,0,0,0,.63,2,2.31,2.31,0,0,0,1.87.73,4.65,4.65,0,0,0,1.46-.22,11.72,11.72,0,0,0,1.44-.58v1.4a10.19,10.19,0,0,1-1.45.54A6.35,6.35,0,0,1,607.86,201.37Zm-1.93-6.21h.23a11.74,11.74,0,0,0,2.3-.22,4,4,0,0,0,1.67-.73,1.6,1.6,0,0,0,.64-1.34,1.19,1.19,0,0,0-.37-.9,1.63,1.63,0,0,0-1.13-.35,2.42,2.42,0,0,0-1.33.42,4.12,4.12,0,0,0-1.19,1.2A6.25,6.25,0,0,0,605.93,195.16Z" style="fill:#00131a"/><path d="M612.23,201.17l4.66-5.5-2.32-5.2h1.64l1.72,4,3.26-4h1.88l-4.47,5.26,2.48,5.44h-1.66l-1.87-4.25-3.43,4.25Z" style="fill:#00131a"/><path d="M622.14,206l3.27-15.49h1.33l-.27,2.08h.07a9,9,0,0,1,1-1.12,4.62,4.62,0,0,1,1.21-.82,3.3,3.3,0,0,1,1.44-.32,2.8,2.8,0,0,1,1.54.42,2.85,2.85,0,0,1,1,1.23,5,5,0,0,1,.36,2,10.45,10.45,0,0,1-.23,2.24,8.71,8.71,0,0,1-.67,2,6.48,6.48,0,0,1-1.08,1.64,4.65,4.65,0,0,1-1.45,1.1,4,4,0,0,1-1.81.4,2.93,2.93,0,0,1-1.3-.27,2.76,2.76,0,0,1-.9-.71,3.47,3.47,0,0,1-.58-.95H625c0,.25-.07.56-.13.95s-.11.71-.17,1l-1,4.6Zm5.62-5.94a2.41,2.41,0,0,0,1.26-.34,3.72,3.72,0,0,0,1-.93,6.09,6.09,0,0,0,.77-1.38,8.65,8.65,0,0,0,.49-1.66,9.58,9.58,0,0,0,.16-1.78,2.73,2.73,0,0,0-.45-1.71,1.61,1.61,0,0,0-1.35-.58,2.21,2.21,0,0,0-.95.23,3.65,3.65,0,0,0-.93.65,5.46,5.46,0,0,0-.84,1,6.78,6.78,0,0,0-.68,1.25,8.06,8.06,0,0,0-.45,1.44,7.38,7.38,0,0,0-.17,1.56,2.51,2.51,0,0,0,.52,1.65A2,2,0,0,0,627.76,200Z" style="fill:#00131a"/><path d="M639,201.37a4.12,4.12,0,0,1-2.07-.49,3.22,3.22,0,0,1-1.33-1.38,4.7,4.7,0,0,1-.46-2.17,8.89,8.89,0,0,1,.37-2.55,7.93,7.93,0,0,1,1.08-2.27,5.57,5.57,0,0,1,1.69-1.63,4.27,4.27,0,0,1,2.23-.61,3.3,3.3,0,0,1,2.23.66,2.28,2.28,0,0,1,.76,1.82,3,3,0,0,1-.37,1.49,3.42,3.42,0,0,1-1.15,1.19,6.53,6.53,0,0,1-2,.78,12.67,12.67,0,0,1-2.8.28h-.38q0,.16,0,.39c0,.14,0,.27,0,.4a3,3,0,0,0,.62,2,2.33,2.33,0,0,0,1.88.73,4.59,4.59,0,0,0,1.45-.22,12.5,12.5,0,0,0,1.45-.58v1.4a10.78,10.78,0,0,1-1.46.54A6.3,6.3,0,0,1,639,201.37ZM637,195.16h.23a11.66,11.66,0,0,0,2.3-.22,4.06,4.06,0,0,0,1.68-.73,1.62,1.62,0,0,0,.63-1.34,1.19,1.19,0,0,0-.37-.9,1.61,1.61,0,0,0-1.13-.35,2.45,2.45,0,0,0-1.33.42,4.12,4.12,0,0,0-1.19,1.2A6.25,6.25,0,0,0,637,195.16Z" style="fill:#00131a"/><path d="M644.65,201.17l2.27-10.7h1.33l-.25,2.07h.09c.28-.37.57-.73.88-1.08a4.14,4.14,0,0,1,1.07-.85,2.72,2.72,0,0,1,1.38-.34c.2,0,.4,0,.6,0a3.38,3.38,0,0,1,.57.11l-.36,1.46-.51-.09-.51,0a2.65,2.65,0,0,0-1.38.38,4.6,4.6,0,0,0-1.14,1,7.28,7.28,0,0,0-.85,1.44,8.63,8.63,0,0,0-.52,1.61l-1,4.95Z" style="fill:#00131a"/><path d="M652.55,201.17l2.27-10.7h1.63l-2.27,10.7Zm3.64-12.58a1,1,0,0,1-.65-.22.84.84,0,0,1-.26-.65,1.39,1.39,0,0,1,.13-.61,1.12,1.12,0,0,1,.38-.45,1,1,0,0,1,.61-.17.85.85,0,0,1,.65.22.88.88,0,0,1,.21.62,1.25,1.25,0,0,1-.33.92A1,1,0,0,1,656.19,188.59Z" style="fill:#00131a"/><path d="M657.6,201.17l2.27-10.7h1.33l-.25,2.07H661a9.43,9.43,0,0,1,.85-1,4.61,4.61,0,0,1,1.16-.88,3.08,3.08,0,0,1,1.5-.36,2.19,2.19,0,0,1,1.72.66,3,3,0,0,1,.68,1.79H667a7.14,7.14,0,0,1,.94-1.16,4.65,4.65,0,0,1,1.24-.92,3.21,3.21,0,0,1,1.54-.37,2.56,2.56,0,0,1,1.91.68,2.64,2.64,0,0,1,.68,2,5.94,5.94,0,0,1-.06.87,6.86,6.86,0,0,1-.16.84l-1.38,6.56h-1.64l1.44-6.74c.06-.29.1-.54.13-.76a4.42,4.42,0,0,0,.05-.61,1.5,1.5,0,0,0-.35-1,1.44,1.44,0,0,0-1.09-.38,2.47,2.47,0,0,0-1.07.28,4,4,0,0,0-1.08.86,5.88,5.88,0,0,0-.94,1.44,9.2,9.2,0,0,0-.68,2l-1,4.91h-1.62l1.42-6.71c.06-.3.1-.55.13-.77a4.42,4.42,0,0,0,.05-.56,1.69,1.69,0,0,0-.32-1.09,1.28,1.28,0,0,0-1.06-.4,2.38,2.38,0,0,0-1.08.28,3.6,3.6,0,0,0-1.09.85,6.46,6.46,0,0,0-1,1.5,9.09,9.09,0,0,0-.71,2.19l-1,4.71Z" style="fill:#00131a"/><path d="M679.31,201.37a4.12,4.12,0,0,1-2.07-.49,3.22,3.22,0,0,1-1.33-1.38,4.7,4.7,0,0,1-.46-2.17,8.89,8.89,0,0,1,.37-2.55,7.93,7.93,0,0,1,1.08-2.27,5.6,5.6,0,0,1,1.7-1.63,4.21,4.21,0,0,1,2.22-.61,3.3,3.3,0,0,1,2.23.66,2.28,2.28,0,0,1,.77,1.82,3.06,3.06,0,0,1-.38,1.49,3.42,3.42,0,0,1-1.15,1.19,6.42,6.42,0,0,1-2,.78,12.67,12.67,0,0,1-2.8.28h-.37a3.63,3.63,0,0,0,0,.39c0,.14,0,.27,0,.4a3,3,0,0,0,.62,2,2.33,2.33,0,0,0,1.88.73,4.69,4.69,0,0,0,1.46-.22,11.72,11.72,0,0,0,1.44-.58v1.4a10.3,10.3,0,0,1-1.46.54A6.3,6.3,0,0,1,679.31,201.37Zm-1.93-6.21h.24a11.63,11.63,0,0,0,2.29-.22,4,4,0,0,0,1.68-.73,1.62,1.62,0,0,0,.63-1.34,1.19,1.19,0,0,0-.37-.9,1.59,1.59,0,0,0-1.13-.35,2.45,2.45,0,0,0-1.33.42,4.1,4.1,0,0,0-1.18,1.2A6.26,6.26,0,0,0,677.38,195.16Z" style="fill:#00131a"/><path d="M684.92,201.17l2.29-10.75h1.44l-.25,2.06h0a8.05,8.05,0,0,1,.89-1,4.76,4.76,0,0,1,1.22-.88,3.41,3.41,0,0,1,1.59-.35,3.19,3.19,0,0,1,1.47.31,2.28,2.28,0,0,1,.95.92,3,3,0,0,1,.33,1.45,5.67,5.67,0,0,1-.07.91c0,.31-.09.58-.14.82l-1.43,6.54H691.5l1.45-6.75c.06-.3.1-.55.14-.76a4,4,0,0,0,0-.58,1.36,1.36,0,0,0-.37-1,1.55,1.55,0,0,0-1.09-.35,2.86,2.86,0,0,0-1.51.49,4.84,4.84,0,0,0-1.46,1.54,8.43,8.43,0,0,0-1.05,2.74l-1,4.71Z" style="fill:#00131a"/><path d="M699.56,201.37a2.94,2.94,0,0,1-1.77-.51,2,2,0,0,1-.71-1.77,5.29,5.29,0,0,1,0-.66,6.92,6.92,0,0,1,.12-.73l1.26-6h-1.65L697,191l1.78-.69L700,188h1l-.54,2.46h2.75l-.25,1.24h-2.75l-1.26,6c0,.18-.09.37-.13.58a4.28,4.28,0,0,0,0,.6,1.26,1.26,0,0,0,.25.81,1,1,0,0,0,.85.33,3.23,3.23,0,0,0,.71-.07,6.48,6.48,0,0,0,.72-.19V201a4.78,4.78,0,0,1-.74.23A4.52,4.52,0,0,1,699.56,201.37Z" style="fill:#00131a"/><path d="M711.35,201.37a3,3,0,0,1-1.78-.51,2.05,2.05,0,0,1-.7-1.77q0-.3,0-.66a7,7,0,0,1,.13-.73l1.26-6h-1.65l.16-.75,1.77-.69,1.18-2.26h1l-.53,2.46h2.75l-.25,1.24h-2.75l-1.27,6c0,.18-.08.37-.12.58a3.17,3.17,0,0,0,0,.6,1.26,1.26,0,0,0,.25.81,1,1,0,0,0,.85.33,3.29,3.29,0,0,0,.71-.07,6.48,6.48,0,0,0,.72-.19V201a5.16,5.16,0,0,1-.74.23A4.52,4.52,0,0,1,711.35,201.37Z" style="fill:#00131a"/><path d="M714.89,201.17l2.28-10.7h1.32l-.25,2.07h.1a12.6,12.6,0,0,1,.88-1.08,3.83,3.83,0,0,1,1.07-.85,2.72,2.72,0,0,1,1.38-.34c.19,0,.39,0,.59,0a3.38,3.38,0,0,1,.57.11l-.35,1.46-.52-.09a4.12,4.12,0,0,0-.51,0,2.64,2.64,0,0,0-1.37.38,4.27,4.27,0,0,0-1.14,1,6.43,6.43,0,0,0-.85,1.44,8,8,0,0,0-.52,1.61l-1.05,4.95Z" style="fill:#00131a"/><path d="M726.09,201.37a2.64,2.64,0,0,1-2.54-1.66,5,5,0,0,1-.36-2,10,10,0,0,1,.25-2.28,9.18,9.18,0,0,1,.71-2,6.39,6.39,0,0,1,1.11-1.64,4.77,4.77,0,0,1,1.46-1.09,3.83,3.83,0,0,1,1.74-.4,2.75,2.75,0,0,1,1.26.28,2.72,2.72,0,0,1,.89.72,4.1,4.1,0,0,1,.56.94h.1l.62-1.74h1.24l-2.26,10.7h-1.3l.29-2.07h-.08a8,8,0,0,1-1,1.11,5.42,5.42,0,0,1-1.24.84A3.38,3.38,0,0,1,726.09,201.37Zm.53-1.35a2.46,2.46,0,0,0,1.49-.55,5.62,5.62,0,0,0,1.33-1.5,7.65,7.65,0,0,0,.9-2.12,8.24,8.24,0,0,0,.21-1.06c0-.32.05-.62.05-.9a2.44,2.44,0,0,0-.53-1.63,1.82,1.82,0,0,0-1.45-.62,2.41,2.41,0,0,0-1.23.33,3.69,3.69,0,0,0-1,.91,6,6,0,0,0-.8,1.34,8.56,8.56,0,0,0-.51,1.67,9.36,9.36,0,0,0-.18,1.85,2.69,2.69,0,0,0,.46,1.7A1.56,1.56,0,0,0,726.62,200Z" style="fill:#00131a"/><path d="M738.47,201.37a4.43,4.43,0,0,1-2.08-.46,3.21,3.21,0,0,1-1.39-1.34,4.49,4.49,0,0,1-.49-2.21,9.25,9.25,0,0,1,.25-2.19,7.7,7.7,0,0,1,.73-1.95,6,6,0,0,1,1.16-1.55,4.82,4.82,0,0,1,1.56-1,4.91,4.91,0,0,1,1.9-.37,7.2,7.2,0,0,1,1.39.14,5.46,5.46,0,0,1,1.24.37l-.46,1.37a5.56,5.56,0,0,0-1-.35,4.24,4.24,0,0,0-1.2-.16,3,3,0,0,0-1.61.45,4,4,0,0,0-1.25,1.25,6.3,6.3,0,0,0-.81,1.82,8.09,8.09,0,0,0-.28,2.18,3.33,3.33,0,0,0,.29,1.44,2.16,2.16,0,0,0,.85.92,2.61,2.61,0,0,0,1.32.32,4.48,4.48,0,0,0,1.34-.19,11.66,11.66,0,0,0,1.24-.47v1.38a5.24,5.24,0,0,1-1.23.45A6,6,0,0,1,738.47,201.37Z" style="fill:#00131a"/><path d="M743.14,201.17,746.36,186H748l-1.32,6.2c-.15.68-.28,1.26-.4,1.74s-.24.87-.33,1.17-.16.54-.2.7h0l5.27-5.32H753l-4.63,4.6,2.88,6.1h-1.8l-2.31-5.09-1.56,1.26-.78,3.83Z" style="fill:#00131a"/><path d="M757.22,201.37a4.12,4.12,0,0,1-2.07-.49,3.22,3.22,0,0,1-1.33-1.38,4.7,4.7,0,0,1-.46-2.17,8.89,8.89,0,0,1,.37-2.55,7.93,7.93,0,0,1,1.08-2.27,5.49,5.49,0,0,1,1.7-1.63,4.21,4.21,0,0,1,2.22-.61,3.3,3.3,0,0,1,2.23.66,2.28,2.28,0,0,1,.77,1.82,3.06,3.06,0,0,1-.38,1.49,3.42,3.42,0,0,1-1.15,1.19,6.42,6.42,0,0,1-2,.78,12.67,12.67,0,0,1-2.8.28h-.37a3.63,3.63,0,0,0,0,.39c0,.14,0,.27,0,.4a3,3,0,0,0,.62,2,2.33,2.33,0,0,0,1.88.73,4.69,4.69,0,0,0,1.46-.22,11.72,11.72,0,0,0,1.44-.58v1.4a10.3,10.3,0,0,1-1.46.54A6.3,6.3,0,0,1,757.22,201.37Zm-1.93-6.21h.23a11.66,11.66,0,0,0,2.3-.22,4,4,0,0,0,1.68-.73,1.62,1.62,0,0,0,.63-1.34,1.19,1.19,0,0,0-.37-.9,1.59,1.59,0,0,0-1.13-.35,2.45,2.45,0,0,0-1.33.42,4.1,4.1,0,0,0-1.18,1.2A6.26,6.26,0,0,0,755.29,195.16Z" style="fill:#00131a"/><path d="M762.9,201.17l2.27-10.7h1.33l-.25,2.07h.09c.28-.37.57-.73.88-1.08a4.14,4.14,0,0,1,1.07-.85,2.72,2.72,0,0,1,1.38-.34c.2,0,.4,0,.6,0a3.38,3.38,0,0,1,.57.11l-.35,1.46-.52-.09a4.12,4.12,0,0,0-.51,0,2.68,2.68,0,0,0-1.38.38,4.39,4.39,0,0,0-1.13,1,6.43,6.43,0,0,0-.85,1.44,8,8,0,0,0-.53,1.61l-1,4.95Z" style="fill:#00131a"/></svg>