<svg xmlns="http://www.w3.org/2000/svg" viewBox="0 0 400 400"><defs><style>.a{fill:#00a4e0;}.b{fill:#fff;}</style></defs><title>FastTrackML</title><path class="a" d="M310,107.57c-.64-.88-2.09-1.13-4.37-.77L210.72,122l-13.15,2.11-34.85,5.59c-2.39.38-2.95,3.71-.74,4.37l24.48,7.37-13.91,49.73L80.37,206l-4.05,12.53,192.16-30.82.48-1.64c1.31-4.52,1.46-10.26-6.42-9l-51.74,8.3,9.25-33.78,70.57-11.32a19.28,19.28,0,0,0,7.18-2.33,10.58,10.58,0,0,0,3.95-5.45l8.2-20.83Q311,108.88,310,107.57Z"/><path class="b" d="M200,10C95.23,10,10,95.23,10,200a189.19,189.19,0,0,0,2,27.2l24.56-3.08A165.39,165.39,0,0,1,34.78,200C34.78,108.9,108.9,34.78,200,34.78S365.22,108.9,365.22,200,291.1,365.22,200,365.22c-73.36,0-135.66-48.07-157.16-114.36l116.49-18.69-18.91,64.88q-1.33,4.56,0,5.87c.9.87,2.81,1.08,5.7.61l23.64-3.78q6.71-1.08,8.75-8.11l19.1-65.5,31.43-5c4.62-.74,7.65-3.54,9.06-8.39l2.29-7.84L39,237.17h0l0,0L14.52,241.1s.66,2.84,1.5,6.15c.22.86.44,1.72.67,2.58.48,1.82,1,3.61,1.42,5h0C41.73,332.93,114.29,390,200,390c104.77,0,190-85.23,190-190S304.77,10,200,10Z"/></svg>